<svg width="280" height="294" viewBox="0 0 280 294" fill="none" xmlns="http://www.w3.org/2000/svg">
<path opacity="0.4" d="M11.394 15H9.72V3.606H3.132V15H1.476V2.22H11.394V15ZM22.4436 10.554C22.4436 11.946 22.0776 13.074 21.3456 13.938C20.6136 14.802 19.6776 15.234 18.5376 15.234C17.2056 15.234 16.2276 14.76 15.6036 13.812V18.24H14.0556V6.144H15.5136V7.512C16.1736 6.444 17.1816 5.91 18.5376 5.91C19.6776 5.91 20.6136 6.342 21.3456 7.206C22.0776 8.07 22.4436 9.186 22.4436 10.554ZM20.1576 12.984C20.6256 12.372 20.8596 11.562 20.8596 10.554C20.8596 9.546 20.6256 8.742 20.1576 8.142C19.7016 7.53 19.0836 7.224 18.3036 7.224C17.4756 7.224 16.8096 7.524 16.3056 8.124C15.8016 8.724 15.5496 9.534 15.5496 10.554C15.5496 11.586 15.8016 12.402 16.3056 13.002C16.8096 13.602 17.4756 13.902 18.3036 13.902C19.0716 13.902 19.6896 13.596 20.1576 12.984ZM30.4584 6.144H32.1324V15H30.6744V11.364C30.6744 9.9 30.6924 8.676 30.7284 7.692C29.9844 8.928 29.3004 10.02 28.6764 10.968L26.0484 15H24.3924V6.144H25.8504V10.068C25.8504 11.232 25.8324 12.336 25.7964 13.38C26.7324 11.868 27.4104 10.8 27.8304 10.176L30.4584 6.144ZM42.4169 6.144H44.6849V15H43.2269V10.95C43.2269 10.566 43.2389 9.642 43.2629 8.178L43.2809 7.206L42.0389 10.572L40.3289 15H38.9609L37.2689 10.572C36.9209 9.684 36.5009 8.568 36.0089 7.224C36.0569 8.52 36.0809 9.762 36.0809 10.95V15H34.6229V6.144H36.9449L38.4569 10.086C38.8049 10.986 39.2129 12.132 39.6809 13.524C40.0649 12.372 40.4729 11.232 40.9049 10.104L42.4169 6.144ZM53.9236 12.48L54.8416 13.416C54.2056 14.088 53.5936 14.562 53.0056 14.838C52.4176 15.114 51.7456 15.252 50.9896 15.252C49.6576 15.252 48.5896 14.832 47.7856 13.992C46.9936 13.14 46.5976 12.018 46.5976 10.626C46.5976 9.234 46.9816 8.1 47.7496 7.224C48.5296 6.336 49.5556 5.892 50.8276 5.892C52.0876 5.892 53.0656 6.27 53.7616 7.026C54.4696 7.782 54.8236 8.826 54.8236 10.158C54.8236 10.326 54.8116 10.554 54.7876 10.842H48.1456C48.1936 11.778 48.4636 12.534 48.9556 13.11C49.4476 13.674 50.1316 13.956 51.0076 13.956C51.5596 13.956 52.0336 13.848 52.4296 13.632C52.8256 13.428 53.3236 13.044 53.9236 12.48ZM48.1816 9.69H53.2936C53.2576 8.898 53.0176 8.274 52.5736 7.818C52.1416 7.362 51.5536 7.134 50.8096 7.134C50.0896 7.134 49.5016 7.356 49.0456 7.8C48.5896 8.244 48.3016 8.874 48.1816 9.69ZM65.1409 10.554C65.1409 11.946 64.7749 13.074 64.0429 13.938C63.3109 14.802 62.3749 15.234 61.2349 15.234C59.9029 15.234 58.9249 14.76 58.3009 13.812V18.24H56.7529V6.144H58.2109V7.512C58.8709 6.444 59.8789 5.91 61.2349 5.91C62.3749 5.91 63.3109 6.342 64.0429 7.206C64.7749 8.07 65.1409 9.186 65.1409 10.554ZM62.8549 12.984C63.3229 12.372 63.5569 11.562 63.5569 10.554C63.5569 9.546 63.3229 8.742 62.8549 8.142C62.3989 7.53 61.7809 7.224 61.0009 7.224C60.1729 7.224 59.5069 7.524 59.0029 8.124C58.4989 8.724 58.2469 9.534 58.2469 10.554C58.2469 11.586 58.4989 12.402 59.0029 13.002C59.5069 13.602 60.1729 13.902 61.0009 13.902C61.7689 13.902 62.3869 13.596 62.8549 12.984ZM74.4877 15H72.9397V11.058H68.6377V15H67.0897V6.144H68.6377V9.78H72.9397V6.144H74.4877V15ZM84.1321 8.844V15H82.7281V13.902C82.1041 14.826 81.1021 15.288 79.7221 15.288C78.7501 15.288 77.9761 15.078 77.4001 14.658C76.8361 14.238 76.5541 13.62 76.5541 12.804C76.5541 11.856 76.9081 11.166 77.6161 10.734C78.3481 10.29 79.3681 9.954 80.6761 9.726L82.6561 9.366V8.916C82.6561 8.376 82.4641 7.95 82.0801 7.638C81.7081 7.326 81.2101 7.17 80.5861 7.17C80.0461 7.17 79.5601 7.284 79.1281 7.512C78.7081 7.728 78.2221 8.112 77.6701 8.664L76.6801 7.782C77.7481 6.522 79.0321 5.892 80.5321 5.892C81.6601 5.892 82.5421 6.162 83.1781 6.702C83.8141 7.23 84.1321 7.944 84.1321 8.844ZM82.6561 11.688V10.518L81.0361 10.842C79.9321 11.07 79.1701 11.304 78.7501 11.544C78.3421 11.784 78.1141 12.186 78.0661 12.75C78.0661 13.158 78.2221 13.47 78.5341 13.686C78.8581 13.902 79.3081 14.01 79.8841 14.01C80.6881 14.01 81.3481 13.8 81.8641 13.38C82.3921 12.948 82.6561 12.384 82.6561 11.688ZM89.4462 6.144H93.4602V15H91.9842V11.814H90.3282L87.6102 15H85.8102L88.6542 11.742C87.8862 11.61 87.2742 11.298 86.8182 10.806C86.3742 10.302 86.1522 9.69 86.1522 8.97C86.1522 8.118 86.4522 7.434 87.0522 6.918C87.6642 6.402 88.4622 6.144 89.4462 6.144ZM91.9842 10.554V7.404H89.6442C89.0082 7.404 88.5162 7.542 88.1682 7.818C87.8322 8.094 87.6642 8.478 87.6642 8.97C87.6642 9.474 87.8322 9.864 88.1682 10.14C88.5162 10.416 89.0022 10.554 89.6262 10.554H91.9842ZM103.739 7.188C102.899 7.188 102.239 7.518 101.759 8.178C101.279 8.826 101.039 9.624 101.039 10.572C101.039 11.508 101.273 12.306 101.741 12.966C102.221 13.614 102.893 13.938 103.757 13.938C104.237 13.938 104.669 13.836 105.053 13.632C105.449 13.416 105.899 13.026 106.403 12.462L107.429 13.326C106.865 14.034 106.301 14.532 105.737 14.82C105.173 15.108 104.513 15.252 103.757 15.252C102.461 15.252 101.417 14.826 100.625 13.974C99.8451 13.122 99.4551 11.988 99.4551 10.572C99.4551 9.168 99.8511 8.04 100.643 7.188C101.447 6.324 102.485 5.892 103.757 5.892C104.489 5.892 105.125 6.018 105.665 6.27C106.217 6.522 106.763 6.954 107.303 7.566L106.295 8.52C105.839 8.028 105.413 7.686 105.017 7.494C104.633 7.29 104.207 7.188 103.739 7.188ZM115.601 7.404H112.649V15H111.101V7.404H108.131V6.144H115.601V7.404ZM123.784 7.206C124.6 8.07 125.008 9.192 125.008 10.572C125.008 11.952 124.6 13.08 123.784 13.956C122.968 14.82 121.918 15.252 120.634 15.252C119.35 15.252 118.294 14.82 117.466 13.956C116.65 13.08 116.242 11.952 116.242 10.572C116.242 9.192 116.65 8.07 117.466 7.206C118.294 6.33 119.35 5.892 120.634 5.892C121.918 5.892 122.968 6.33 123.784 7.206ZM118.582 8.124C118.078 8.748 117.826 9.564 117.826 10.572C117.826 11.58 118.078 12.396 118.582 13.02C119.098 13.644 119.782 13.956 120.634 13.956C121.486 13.956 122.164 13.65 122.668 13.038C123.172 12.414 123.424 11.592 123.424 10.572C123.424 9.552 123.172 8.736 122.668 8.124C122.164 7.5 121.486 7.188 120.634 7.188C119.782 7.188 119.098 7.5 118.582 8.124ZM132.974 6.144H134.648V15H133.19V11.364C133.19 9.9 133.208 8.676 133.244 7.692C132.5 8.928 131.816 10.02 131.192 10.968L128.564 15H126.908V6.144H128.366V10.068C128.366 11.232 128.348 12.336 128.312 13.38C129.248 11.868 129.926 10.8 130.346 10.176L132.974 6.144ZM144.932 6.144H147.2V15H145.742V10.95C145.742 10.566 145.754 9.642 145.778 8.178L145.796 7.206L144.554 10.572L142.844 15H141.476L139.784 10.572C139.436 9.684 139.016 8.568 138.524 7.224C138.572 8.52 138.596 9.762 138.596 10.95V15H137.138V6.144H139.46L140.972 10.086C141.32 10.986 141.728 12.132 142.196 13.524C142.58 12.372 142.988 11.232 143.42 10.104L144.932 6.144ZM156.655 7.206C157.471 8.07 157.879 9.192 157.879 10.572C157.879 11.952 157.471 13.08 156.655 13.956C155.839 14.82 154.789 15.252 153.505 15.252C152.221 15.252 151.165 14.82 150.337 13.956C149.521 13.08 149.113 11.952 149.113 10.572C149.113 9.192 149.521 8.07 150.337 7.206C151.165 6.33 152.221 5.892 153.505 5.892C154.789 5.892 155.839 6.33 156.655 7.206ZM151.453 8.124C150.949 8.748 150.697 9.564 150.697 10.572C150.697 11.58 150.949 12.396 151.453 13.02C151.969 13.644 152.653 13.956 153.505 13.956C154.357 13.956 155.035 13.65 155.539 13.038C156.043 12.414 156.295 11.592 156.295 10.572C156.295 9.552 156.043 8.736 155.539 8.124C155.035 7.5 154.357 7.188 153.505 7.188C152.653 7.188 151.969 7.5 151.453 8.124ZM163.487 7.188C162.647 7.188 161.987 7.518 161.507 8.178C161.027 8.826 160.787 9.624 160.787 10.572C160.787 11.508 161.021 12.306 161.489 12.966C161.969 13.614 162.641 13.938 163.505 13.938C163.985 13.938 164.417 13.836 164.801 13.632C165.197 13.416 165.647 13.026 166.151 12.462L167.177 13.326C166.613 14.034 166.049 14.532 165.485 14.82C164.921 15.108 164.261 15.252 163.505 15.252C162.209 15.252 161.165 14.826 160.373 13.974C159.593 13.122 159.203 11.988 159.203 10.572C159.203 9.168 159.599 8.04 160.391 7.188C161.195 6.324 162.233 5.892 163.505 5.892C164.237 5.892 164.873 6.018 165.413 6.27C165.965 6.522 166.511 6.954 167.051 7.566L166.043 8.52C165.587 8.028 165.161 7.686 164.765 7.494C164.381 7.29 163.955 7.188 163.487 7.188ZM175.35 7.404H172.398V15H170.85V7.404H167.88V6.144H175.35V7.404ZM176.953 15V6.144H178.501V9.114H181.021C182.017 9.114 182.815 9.384 183.415 9.924C184.027 10.452 184.333 11.166 184.333 12.066C184.333 12.966 184.027 13.68 183.415 14.208C182.815 14.736 182.017 15 181.021 15H176.953ZM178.501 13.722H180.769C182.089 13.722 182.749 13.17 182.749 12.066C182.749 10.95 182.089 10.392 180.769 10.392H178.501V13.722ZM188.161 6.144V8.088H186.325V6.144H188.161ZM188.161 13.056V15H186.325V13.056H188.161Z" fill="#222733"/>
<path d="M9.44 48.8H12.96V76H8.4V54.44L3.24 58.04L1 54.92L9.44 48.8ZM40.5203 68.44C40.5203 70.84 39.5736 72.8133 37.6803 74.36C35.8136 75.88 33.2803 76.64 30.0803 76.64C26.8803 76.64 24.3336 75.88 22.4403 74.36C20.547 72.8133 19.6003 70.84 19.6003 68.44C19.6003 65.0267 21.267 62.6267 24.6003 61.24C22.147 60.04 20.9203 58.0667 20.9203 55.32C20.9203 53.1867 21.7603 51.4533 23.4403 50.12C25.147 48.7867 27.3603 48.12 30.0803 48.12C32.8003 48.12 35.0003 48.7867 36.6803 50.12C38.3603 51.4533 39.2003 53.1867 39.2003 55.32C39.2003 58.04 37.987 60.0133 35.5603 61.24C37.1336 61.9067 38.347 62.8667 39.2003 64.12C40.0803 65.3467 40.5203 66.7867 40.5203 68.44ZM25.2803 55.56C25.2803 56.76 25.7203 57.7333 26.6003 58.48C27.4803 59.2267 28.6403 59.6 30.0803 59.6C31.5203 59.6 32.6803 59.2267 33.5603 58.48C34.4403 57.7333 34.8803 56.76 34.8803 55.56C34.8803 54.4133 34.4403 53.48 33.5603 52.76C32.6803 52.0133 31.5203 51.64 30.0803 51.64C28.6403 51.64 27.4803 52.0133 26.6003 52.76C25.7203 53.48 25.2803 54.4133 25.2803 55.56ZM35.9203 68.12C35.9203 66.6267 35.4003 65.4267 34.3603 64.52C33.3203 63.5867 31.8936 63.12 30.0803 63.12C28.267 63.12 26.827 63.5867 25.7603 64.52C24.7203 65.4267 24.2003 66.6267 24.2003 68.12C24.2003 69.5067 24.7336 70.6533 25.8003 71.56C26.867 72.4667 28.2936 72.92 30.0803 72.92C31.867 72.92 33.2803 72.48 34.3203 71.6C35.387 70.6933 35.9203 69.5333 35.9203 68.12ZM62.4294 53.28C63.6827 55.7333 64.3094 58.7733 64.3094 62.4C64.3094 66.0267 63.6827 69.0667 62.4294 71.52C60.616 74.9333 57.776 76.64 53.9094 76.64C50.0427 76.64 47.2027 74.9333 45.3894 71.52C44.136 69.0667 43.5094 66.0267 43.5094 62.4C43.5094 58.7733 44.136 55.7333 45.3894 53.28C47.2027 49.8667 50.0427 48.16 53.9094 48.16C57.776 48.16 60.616 49.8667 62.4294 53.28ZM49.3894 55.16C48.536 57.0267 48.1094 59.44 48.1094 62.4C48.1094 65.36 48.536 67.7733 49.3894 69.64C50.3494 71.72 51.856 72.76 53.9094 72.76C55.9627 72.76 57.4694 71.72 58.4294 69.64C59.2827 67.7733 59.7094 65.36 59.7094 62.4C59.7094 59.44 59.2827 57.0267 58.4294 55.16C57.4694 53.08 55.9627 52.04 53.9094 52.04C51.856 52.04 50.3494 53.08 49.3894 55.16ZM94.9294 53.28C96.1827 55.7333 96.8094 58.7733 96.8094 62.4C96.8094 66.0267 96.1827 69.0667 94.9294 71.52C93.116 74.9333 90.276 76.64 86.4094 76.64C82.5427 76.64 79.7027 74.9333 77.8894 71.52C76.636 69.0667 76.0094 66.0267 76.0094 62.4C76.0094 58.7733 76.636 55.7333 77.8894 53.28C79.7027 49.8667 82.5427 48.16 86.4094 48.16C90.276 48.16 93.116 49.8667 94.9294 53.28ZM81.8894 55.16C81.036 57.0267 80.6094 59.44 80.6094 62.4C80.6094 65.36 81.036 67.7733 81.8894 69.64C82.8494 71.72 84.356 72.76 86.4094 72.76C88.4627 72.76 89.9694 71.72 90.9294 69.64C91.7827 67.7733 92.2094 65.36 92.2094 62.4C92.2094 59.44 91.7827 57.0267 90.9294 55.16C89.9694 53.08 88.4627 52.04 86.4094 52.04C84.356 52.04 82.8494 53.08 81.8894 55.16ZM119.07 53.28C120.323 55.7333 120.95 58.7733 120.95 62.4C120.95 66.0267 120.323 69.0667 119.07 71.52C117.257 74.9333 114.417 76.64 110.55 76.64C106.683 76.64 103.843 74.9333 102.03 71.52C100.777 69.0667 100.15 66.0267 100.15 62.4C100.15 58.7733 100.777 55.7333 102.03 53.28C103.843 49.8667 106.683 48.16 110.55 48.16C114.417 48.16 117.257 49.8667 119.07 53.28ZM106.03 55.16C105.177 57.0267 104.75 59.44 104.75 62.4C104.75 65.36 105.177 67.7733 106.03 69.64C106.99 71.72 108.497 72.76 110.55 72.76C112.603 72.76 114.11 71.72 115.07 69.64C115.923 67.7733 116.35 65.36 116.35 62.4C116.35 59.44 115.923 57.0267 115.07 55.16C114.11 53.08 112.603 52.04 110.55 52.04C108.497 52.04 106.99 53.08 106.03 55.16ZM143.211 53.28C144.464 55.7333 145.091 58.7733 145.091 62.4C145.091 66.0267 144.464 69.0667 143.211 71.52C141.397 74.9333 138.557 76.64 134.691 76.64C130.824 76.64 127.984 74.9333 126.171 71.52C124.917 69.0667 124.291 66.0267 124.291 62.4C124.291 58.7733 124.917 55.7333 126.171 53.28C127.984 49.8667 130.824 48.16 134.691 48.16C138.557 48.16 141.397 49.8667 143.211 53.28ZM130.171 55.16C129.317 57.0267 128.891 59.44 128.891 62.4C128.891 65.36 129.317 67.7733 130.171 69.64C131.131 71.72 132.637 72.76 134.691 72.76C136.744 72.76 138.251 71.72 139.211 69.64C140.064 67.7733 140.491 65.36 140.491 62.4C140.491 59.44 140.064 57.0267 139.211 55.16C138.251 53.08 136.744 52.04 134.691 52.04C132.637 52.04 131.131 53.08 130.171 55.16ZM169.071 65.16H164.951V68.24H172.991V71.24H164.951V76H160.431V71.24H156.871V68.24H160.431V65.16H156.871V61.72H160.431V48.8H169.071C171.737 48.8 173.897 49.56 175.551 51.08C177.204 52.5733 178.031 54.56 178.031 57.04C178.031 59.52 177.204 61.5067 175.551 63C173.897 64.44 171.737 65.16 169.071 65.16ZM164.951 52.6V61.72H168.671C170.191 61.72 171.391 61.32 172.271 60.52C173.177 59.6933 173.631 58.5733 173.631 57.16C173.631 55.7467 173.177 54.64 172.271 53.84C171.391 53.0133 170.191 52.6 168.671 52.6H164.951Z" fill="#222733"/>
<path opacity="0.8" d="M9.396 109.292C9.396 110.348 9.006 111.278 8.226 112.082C7.446 112.886 6.396 113.288 5.076 113.288C3.552 113.288 2.04 112.784 0.54 111.776L1.35 110.606C2.118 111.086 2.772 111.428 3.312 111.632C3.852 111.824 4.422 111.92 5.022 111.92C5.85 111.92 6.516 111.68 7.02 111.2C7.536 110.708 7.794 110.078 7.794 109.31C7.794 108.554 7.536 107.966 7.02 107.546C6.504 107.114 5.784 106.898 4.86 106.898C4.248 106.898 3.762 106.976 3.402 107.132L2.664 106.124L7.056 102.11H1.152V100.76H9.036V102.074L5.076 105.674H5.31C6.498 105.674 7.476 105.998 8.244 106.646C9.012 107.294 9.396 108.176 9.396 109.292ZM19.4423 102.74C20.0183 103.856 20.3063 105.236 20.3063 106.88C20.3063 108.524 20.0183 109.904 19.4423 111.02C18.6623 112.532 17.4203 113.288 15.7163 113.288C14.0123 113.288 12.7703 112.532 11.9903 111.02C11.4143 109.904 11.1263 108.524 11.1263 106.88C11.1263 105.236 11.4143 103.856 11.9903 102.74C12.7703 101.228 14.0123 100.472 15.7163 100.472C17.4203 100.472 18.6623 101.228 19.4423 102.74ZM13.3943 103.424C12.9623 104.312 12.7463 105.464 12.7463 106.88C12.7463 108.296 12.9623 109.448 13.3943 110.336C13.8983 111.392 14.6723 111.92 15.7163 111.92C16.7603 111.92 17.5343 111.392 18.0383 110.336C18.4703 109.448 18.6863 108.296 18.6863 106.88C18.6863 105.464 18.4703 104.312 18.0383 103.424C17.5343 102.368 16.7603 101.84 15.7163 101.84C14.6723 101.84 13.8983 102.368 13.3943 103.424ZM34.1376 102.74C34.7136 103.856 35.0016 105.236 35.0016 106.88C35.0016 108.524 34.7136 109.904 34.1376 111.02C33.3576 112.532 32.1156 113.288 30.4116 113.288C28.7076 113.288 27.4656 112.532 26.6856 111.02C26.1096 109.904 25.8216 108.524 25.8216 106.88C25.8216 105.236 26.1096 103.856 26.6856 102.74C27.4656 101.228 28.7076 100.472 30.4116 100.472C32.1156 100.472 33.3576 101.228 34.1376 102.74ZM28.0896 103.424C27.6576 104.312 27.4416 105.464 27.4416 106.88C27.4416 108.296 27.6576 109.448 28.0896 110.336C28.5936 111.392 29.3676 111.92 30.4116 111.92C31.4556 111.92 32.2296 111.392 32.7336 110.336C33.1656 109.448 33.3816 108.296 33.3816 106.88C33.3816 105.464 33.1656 104.312 32.7336 103.424C32.2296 102.368 31.4556 101.84 30.4116 101.84C29.3676 101.84 28.5936 102.368 28.0896 103.424ZM45.0008 102.74C45.5768 103.856 45.8648 105.236 45.8648 106.88C45.8648 108.524 45.5768 109.904 45.0008 111.02C44.2208 112.532 42.9788 113.288 41.2748 113.288C39.5708 113.288 38.3288 112.532 37.5488 111.02C36.9728 109.904 36.6848 108.524 36.6848 106.88C36.6848 105.236 36.9728 103.856 37.5488 102.74C38.3288 101.228 39.5708 100.472 41.2748 100.472C42.9788 100.472 44.2208 101.228 45.0008 102.74ZM38.9528 103.424C38.5208 104.312 38.3048 105.464 38.3048 106.88C38.3048 108.296 38.5208 109.448 38.9528 110.336C39.4568 111.392 40.2308 111.92 41.2748 111.92C42.3188 111.92 43.0928 111.392 43.5968 110.336C44.0288 109.448 44.2448 108.296 44.2448 106.88C44.2448 105.464 44.0288 104.312 43.5968 103.424C43.0928 102.368 42.3188 101.84 41.2748 101.84C40.2308 101.84 39.4568 102.368 38.9528 103.424ZM55.8641 102.74C56.4401 103.856 56.7281 105.236 56.7281 106.88C56.7281 108.524 56.4401 109.904 55.8641 111.02C55.0841 112.532 53.8421 113.288 52.1381 113.288C50.4341 113.288 49.1921 112.532 48.4121 111.02C47.8361 109.904 47.5481 108.524 47.5481 106.88C47.5481 105.236 47.8361 103.856 48.4121 102.74C49.1921 101.228 50.4341 100.472 52.1381 100.472C53.8421 100.472 55.0841 101.228 55.8641 102.74ZM49.8161 103.424C49.3841 104.312 49.1681 105.464 49.1681 106.88C49.1681 108.296 49.3841 109.448 49.8161 110.336C50.3201 111.392 51.0941 111.92 52.1381 111.92C53.1821 111.92 53.9561 111.392 54.4601 110.336C54.8921 109.448 55.1081 108.296 55.1081 106.88C55.1081 105.464 54.8921 104.312 54.4601 103.424C53.9561 102.368 53.1821 101.84 52.1381 101.84C51.0941 101.84 50.3201 102.368 49.8161 103.424ZM67.6434 107.906H65.4834V109.562H69.3534V110.678H65.4834V113H63.8994V110.678H62.2074V109.562H63.8994V107.906H62.2074V106.7H63.8994V100.76H67.6434C68.7954 100.76 69.7374 101.09 70.4694 101.75C71.2134 102.41 71.5854 103.286 71.5854 104.378C71.5854 105.458 71.2194 106.316 70.4874 106.952C69.7554 107.588 68.8074 107.906 67.6434 107.906ZM65.4834 102.11V106.7H67.4814C68.2734 106.7 68.8974 106.496 69.3534 106.088C69.8094 105.68 70.0374 105.116 70.0374 104.396C70.0374 103.676 69.8094 103.118 69.3534 102.722C68.8974 102.314 68.2734 102.11 67.4814 102.11H65.4834ZM79.9978 100.22L74.4178 113H72.9058L78.4858 100.22H79.9978ZM86.8103 104.144H88.3583V113H86.8103V109.418C86.1623 109.718 85.3643 109.868 84.4163 109.868C83.2883 109.868 82.4663 109.646 81.9503 109.202C81.4343 108.746 81.1763 108.05 81.1763 107.114V104.144H82.7243V107.042C82.7243 107.57 82.8683 107.96 83.1563 108.212C83.4563 108.464 83.9423 108.59 84.6143 108.59C85.4783 108.59 86.2103 108.446 86.8103 108.158V104.144ZM97.5877 110.48L98.5057 111.416C97.8697 112.088 97.2577 112.562 96.6697 112.838C96.0817 113.114 95.4097 113.252 94.6537 113.252C93.3217 113.252 92.2537 112.832 91.4497 111.992C90.6577 111.14 90.2617 110.018 90.2617 108.626C90.2617 107.234 90.6457 106.1 91.4137 105.224C92.1937 104.336 93.2197 103.892 94.4917 103.892C95.7517 103.892 96.7297 104.27 97.4257 105.026C98.1337 105.782 98.4877 106.826 98.4877 108.158C98.4877 108.326 98.4757 108.554 98.4517 108.842H91.8097C91.8577 109.778 92.1277 110.534 92.6197 111.11C93.1117 111.674 93.7957 111.956 94.6717 111.956C95.2237 111.956 95.6977 111.848 96.0937 111.632C96.4897 111.428 96.9877 111.044 97.5877 110.48ZM91.8457 107.69H96.9577C96.9217 106.898 96.6817 106.274 96.2377 105.818C95.8057 105.362 95.2177 105.134 94.4737 105.134C93.7537 105.134 93.1657 105.356 92.7097 105.8C92.2537 106.244 91.9657 106.874 91.8457 107.69ZM99.3412 112.982L99.5032 111.704C99.7432 111.74 99.9712 111.758 100.187 111.758C100.715 111.71 101.039 111.5 101.159 111.128C101.291 110.744 101.375 109.796 101.411 108.284L101.447 104.144H107.999V113H106.451V105.404H102.851L102.815 108.338C102.779 110.234 102.611 111.488 102.311 112.1C102.011 112.712 101.357 113.042 100.349 113.09C99.9652 113.09 99.6292 113.054 99.3412 112.982Z" fill="#222733"/>
<mask id="path-4-inside-1_6356_451" fill="white">
<path d="M0 144H280V194H0V144Z"/>
</mask>
<path d="M280 193H0V195H280V193Z" fill="#545E76" fill-opacity="0.12" mask="url(#path-4-inside-1_6356_451)"/>
<path opacity="0.4" d="M13.644 164.56C14.748 165.58 15.3 166.9 15.3 168.52C15.3 170.14 14.748 171.46 13.644 172.48C12.552 173.5 11.046 174.01 9.126 174.01H8.838V175.63H7.218V174.01H6.93C5.01 174.01 3.498 173.5 2.394 172.48C1.302 171.46 0.756 170.14 0.756 168.52C0.756 166.9 1.302 165.58 2.394 164.56C3.498 163.54 5.01 163.03 6.93 163.03H7.218V161.59H8.838V163.03H9.126C11.046 163.03 12.552 163.54 13.644 164.56ZM6.93 172.624H7.236V164.416H6.93C5.502 164.416 4.392 164.794 3.6 165.55C2.82 166.306 2.43 167.296 2.43 168.52C2.43 169.744 2.82 170.734 3.6 171.49C4.392 172.246 5.502 172.624 6.93 172.624ZM12.438 171.49C13.23 170.734 13.626 169.744 13.626 168.52C13.626 167.296 13.23 166.306 12.438 165.55C11.658 164.794 10.554 164.416 9.126 164.416H8.82V172.624H9.126C10.554 172.624 11.658 172.246 12.438 171.49ZM24.3096 167.206C25.1256 168.07 25.5336 169.192 25.5336 170.572C25.5336 171.952 25.1256 173.08 24.3096 173.956C23.4936 174.82 22.4436 175.252 21.1596 175.252C19.8756 175.252 18.8196 174.82 17.9916 173.956C17.1756 173.08 16.7676 171.952 16.7676 170.572C16.7676 169.192 17.1756 168.07 17.9916 167.206C18.8196 166.33 19.8756 165.892 21.1596 165.892C22.4436 165.892 23.4936 166.33 24.3096 167.206ZM19.1076 168.124C18.6036 168.748 18.3516 169.564 18.3516 170.572C18.3516 171.58 18.6036 172.396 19.1076 173.02C19.6236 173.644 20.3076 173.956 21.1596 173.956C22.0116 173.956 22.6896 173.65 23.1936 173.038C23.6976 172.414 23.9496 171.592 23.9496 170.572C23.9496 169.552 23.6976 168.736 23.1936 168.124C22.6896 167.5 22.0116 167.188 21.1596 167.188C20.3076 167.188 19.6236 167.5 19.1076 168.124ZM35.7854 170.554C35.7854 171.946 35.4194 173.074 34.6874 173.938C33.9554 174.802 33.0194 175.234 31.8794 175.234C30.5474 175.234 29.5694 174.76 28.9454 173.812V178.24H27.3974V166.144H28.8554V167.512C29.5154 166.444 30.5234 165.91 31.8794 165.91C33.0194 165.91 33.9554 166.342 34.6874 167.206C35.4194 168.07 35.7854 169.186 35.7854 170.554ZM33.4994 172.984C33.9674 172.372 34.2014 171.562 34.2014 170.554C34.2014 169.546 33.9674 168.742 33.4994 168.142C33.0434 167.53 32.4254 167.224 31.6454 167.224C30.8174 167.224 30.1514 167.524 29.6474 168.124C29.1434 168.724 28.8914 169.534 28.8914 170.554C28.8914 171.586 29.1434 172.402 29.6474 173.002C30.1514 173.602 30.8174 173.902 31.6454 173.902C32.4134 173.902 33.0314 173.596 33.4994 172.984ZM45.5282 166.144H47.7962V175H46.3382V170.95C46.3382 170.566 46.3502 169.642 46.3742 168.178L46.3922 167.206L45.1502 170.572L43.4402 175H42.0722L40.3802 170.572C40.0322 169.684 39.6122 168.568 39.1202 167.224C39.1682 168.52 39.1922 169.762 39.1922 170.95V175H37.7342V166.144H40.0562L41.5682 170.086C41.9162 170.986 42.3242 172.132 42.7922 173.524C43.1762 172.372 43.5842 171.232 44.0162 170.104L45.5282 166.144ZM57.431 168.844V175H56.027V173.902C55.403 174.826 54.401 175.288 53.021 175.288C52.049 175.288 51.275 175.078 50.699 174.658C50.135 174.238 49.853 173.62 49.853 172.804C49.853 171.856 50.207 171.166 50.915 170.734C51.647 170.29 52.667 169.954 53.975 169.726L55.955 169.366V168.916C55.955 168.376 55.763 167.95 55.379 167.638C55.007 167.326 54.509 167.17 53.885 167.17C53.345 167.17 52.859 167.284 52.427 167.512C52.007 167.728 51.521 168.112 50.969 168.664L49.979 167.782C51.047 166.522 52.331 165.892 53.831 165.892C54.959 165.892 55.841 166.162 56.477 166.702C57.113 167.23 57.431 167.944 57.431 168.844ZM55.955 171.688V170.518L54.335 170.842C53.231 171.07 52.469 171.304 52.049 171.544C51.641 171.784 51.413 172.186 51.365 172.75C51.365 173.158 51.521 173.47 51.833 173.686C52.157 173.902 52.607 174.01 53.183 174.01C53.987 174.01 54.647 173.8 55.163 173.38C55.691 172.948 55.955 172.384 55.955 171.688ZM66.1366 167.404H63.1846V175H61.6366V167.404H58.6666V166.144H66.1366V167.404ZM69.72 166.144V168.088H67.884V166.144H69.72ZM69.72 173.056V175H67.884V173.056H69.72Z" fill="#222733"/>
<path d="M226.644 164.56C227.748 165.58 228.3 166.9 228.3 168.52C228.3 170.14 227.748 171.46 226.644 172.48C225.552 173.5 224.046 174.01 222.126 174.01H221.838V175.63H220.218V174.01H219.93C218.01 174.01 216.498 173.5 215.394 172.48C214.302 171.46 213.756 170.14 213.756 168.52C213.756 166.9 214.302 165.58 215.394 164.56C216.498 163.54 218.01 163.03 219.93 163.03H220.218V161.59H221.838V163.03H222.126C224.046 163.03 225.552 163.54 226.644 164.56ZM219.93 172.624H220.236V164.416H219.93C218.502 164.416 217.392 164.794 216.6 165.55C215.82 166.306 215.43 167.296 215.43 168.52C215.43 169.744 215.82 170.734 216.6 171.49C217.392 172.246 218.502 172.624 219.93 172.624ZM225.438 171.49C226.23 170.734 226.626 169.744 226.626 168.52C226.626 167.296 226.23 166.306 225.438 165.55C224.658 164.794 223.554 164.416 222.126 164.416H221.82V172.624H222.126C223.554 172.624 224.658 172.246 225.438 171.49ZM235.924 166.144H237.49L233.944 176.224C233.644 177.064 233.308 177.646 232.936 177.97C232.564 178.306 232.012 178.474 231.28 178.474C230.764 178.474 230.308 178.414 229.912 178.294L230.182 177.106C230.506 177.178 230.824 177.214 231.136 177.214C231.508 177.214 231.802 177.112 232.018 176.908C232.246 176.704 232.45 176.338 232.63 175.81L232.738 175.468L229.408 166.144H231.046L232.036 169.078C232.3 169.846 232.738 171.154 233.35 173.002L233.494 173.452L234.034 171.814L234.934 169.042L235.924 166.144ZM247.414 170.554C247.414 171.946 247.048 173.074 246.316 173.938C245.584 174.802 244.648 175.234 243.508 175.234C242.176 175.234 241.198 174.76 240.574 173.812V178.24H239.026V166.144H240.484V167.512C241.144 166.444 242.152 165.91 243.508 165.91C244.648 165.91 245.584 166.342 246.316 167.206C247.048 168.07 247.414 169.186 247.414 170.554ZM245.128 172.984C245.596 172.372 245.83 171.562 245.83 170.554C245.83 169.546 245.596 168.742 245.128 168.142C244.672 167.53 244.054 167.224 243.274 167.224C242.446 167.224 241.78 167.524 241.276 168.124C240.772 168.724 240.52 169.534 240.52 170.554C240.52 171.586 240.772 172.402 241.276 173.002C241.78 173.602 242.446 173.902 243.274 173.902C244.042 173.902 244.66 173.596 245.128 172.984ZM260.919 166.144V175H249.363V166.144H250.911V173.722H254.367V166.144H255.915V173.722H259.371V166.144H260.919ZM270.176 172.48L271.094 173.416C270.458 174.088 269.846 174.562 269.258 174.838C268.67 175.114 267.998 175.252 267.242 175.252C265.91 175.252 264.842 174.832 264.038 173.992C263.246 173.14 262.85 172.018 262.85 170.626C262.85 169.234 263.234 168.1 264.002 167.224C264.782 166.336 265.808 165.892 267.08 165.892C268.34 165.892 269.318 166.27 270.014 167.026C270.722 167.782 271.076 168.826 271.076 170.158C271.076 170.326 271.064 170.554 271.04 170.842H264.398C264.446 171.778 264.716 172.534 265.208 173.11C265.7 173.674 266.384 173.956 267.26 173.956C267.812 173.956 268.286 173.848 268.682 173.632C269.078 173.428 269.576 173.044 270.176 172.48ZM264.434 169.69H269.546C269.51 168.898 269.27 168.274 268.826 167.818C268.394 167.362 267.806 167.134 267.062 167.134C266.342 167.134 265.754 167.356 265.298 167.8C264.842 168.244 264.554 168.874 264.434 169.69ZM279.348 167.404H276.396V175H274.848V167.404H271.878V166.144H279.348V167.404Z" fill="#222733"/>
<mask id="path-8-inside-2_6356_451" fill="white">
<path d="M0 194H280V244H0V194Z"/>
</mask>
<path d="M280 243H0V245H280V243Z" fill="#545E76" fill-opacity="0.12" mask="url(#path-8-inside-2_6356_451)"/>
<path opacity="0.4" d="M9.792 225L5.454 219.06H3.132V225H1.476V212.22H3.132V217.674H5.418L9.576 212.22H11.466L6.786 218.286L11.718 225H9.792ZM19.4756 217.206C20.2916 218.07 20.6996 219.192 20.6996 220.572C20.6996 221.952 20.2916 223.08 19.4756 223.956C18.6596 224.82 17.6096 225.252 16.3256 225.252C15.0416 225.252 13.9856 224.82 13.1576 223.956C12.3416 223.08 11.9336 221.952 11.9336 220.572C11.9336 219.192 12.3416 218.07 13.1576 217.206C13.9856 216.33 15.0416 215.892 16.3256 215.892C17.6096 215.892 18.6596 216.33 19.4756 217.206ZM14.2736 218.124C13.7696 218.748 13.5176 219.564 13.5176 220.572C13.5176 221.58 13.7696 222.396 14.2736 223.02C14.7896 223.644 15.4736 223.956 16.3256 223.956C17.1776 223.956 17.8556 223.65 18.3596 223.038C18.8636 222.414 19.1156 221.592 19.1156 220.572C19.1156 219.552 18.8636 218.736 18.3596 218.124C17.8556 217.5 17.1776 217.188 16.3256 217.188C15.4736 217.188 14.7896 217.5 14.2736 218.124ZM21.1712 224.982L21.3332 223.704C21.5732 223.74 21.8012 223.758 22.0172 223.758C22.5452 223.71 22.8692 223.5 22.9892 223.128C23.1212 222.744 23.2052 221.796 23.2412 220.284L23.2772 216.144H29.8292V225H28.2812V217.404H24.6812L24.6452 220.338C24.6092 222.234 24.4412 223.488 24.1412 224.1C23.8412 224.712 23.1872 225.042 22.1792 225.09C21.7952 225.09 21.4592 225.054 21.1712 224.982ZM38.3861 216.144H40.0601V225H38.6021V221.364C38.6021 219.9 38.6201 218.676 38.6561 217.692C37.9121 218.928 37.2281 220.02 36.6041 220.968L33.9761 225H32.3201V216.144H33.7781V220.068C33.7781 221.232 33.7601 222.336 33.7241 223.38C34.6601 221.868 35.3381 220.8 35.7581 220.176L38.3861 216.144ZM47.7166 216.144H49.2646V225H47.7166V221.418C47.0686 221.718 46.2706 221.868 45.3226 221.868C44.1946 221.868 43.3726 221.646 42.8566 221.202C42.3406 220.746 42.0826 220.05 42.0826 219.114V216.144H43.6306V219.042C43.6306 219.57 43.7746 219.96 44.0626 220.212C44.3626 220.464 44.8486 220.59 45.5206 220.59C46.3846 220.59 47.1166 220.446 47.7166 220.158V216.144ZM58.494 222.48L59.412 223.416C58.776 224.088 58.164 224.562 57.576 224.838C56.988 225.114 56.316 225.252 55.56 225.252C54.228 225.252 53.16 224.832 52.356 223.992C51.564 223.14 51.168 222.018 51.168 220.626C51.168 219.234 51.552 218.1 52.32 217.224C53.1 216.336 54.126 215.892 55.398 215.892C56.658 215.892 57.636 216.27 58.332 217.026C59.04 217.782 59.394 218.826 59.394 220.158C59.394 220.326 59.382 220.554 59.358 220.842H52.716C52.764 221.778 53.034 222.534 53.526 223.11C54.018 223.674 54.702 223.956 55.578 223.956C56.13 223.956 56.604 223.848 57 223.632C57.396 223.428 57.894 223.044 58.494 222.48ZM52.752 219.69H57.864C57.828 218.898 57.588 218.274 57.144 217.818C56.712 217.362 56.124 217.134 55.38 217.134C54.66 217.134 54.072 217.356 53.616 217.8C53.16 218.244 52.872 218.874 52.752 219.69ZM65.0672 217.188C64.2272 217.188 63.5672 217.518 63.0872 218.178C62.6072 218.826 62.3672 219.624 62.3672 220.572C62.3672 221.508 62.6012 222.306 63.0692 222.966C63.5492 223.614 64.2212 223.938 65.0852 223.938C65.5652 223.938 65.9972 223.836 66.3812 223.632C66.7772 223.416 67.2272 223.026 67.7312 222.462L68.7572 223.326C68.1932 224.034 67.6292 224.532 67.0652 224.82C66.5012 225.108 65.8412 225.252 65.0852 225.252C63.7892 225.252 62.7452 224.826 61.9532 223.974C61.1732 223.122 60.7832 221.988 60.7832 220.572C60.7832 219.168 61.1792 218.04 61.9712 217.188C62.7752 216.324 63.8132 215.892 65.0852 215.892C65.8172 215.892 66.4532 216.018 66.9932 216.27C67.5452 216.522 68.0912 216.954 68.6312 217.566L67.6232 218.52C67.1672 218.028 66.7412 217.686 66.3452 217.494C65.9612 217.29 65.5352 217.188 65.0672 217.188ZM76.9296 217.404H73.9776V225H72.4296V217.404H69.4596V216.144H76.9296V217.404ZM86.201 222.516C86.201 223.272 85.937 223.878 85.409 224.334C84.881 224.778 84.155 225 83.231 225H78.533V216.144H83.015C83.903 216.144 84.617 216.354 85.157 216.774C85.697 217.182 85.967 217.746 85.967 218.466C85.967 218.934 85.829 219.342 85.553 219.69C85.289 220.038 84.923 220.284 84.455 220.428C84.995 220.56 85.421 220.812 85.733 221.184C86.045 221.544 86.201 221.988 86.201 222.516ZM80.063 217.368V219.924H82.799C83.339 219.924 83.747 219.81 84.023 219.582C84.299 219.342 84.437 219.012 84.437 218.592C84.437 217.776 83.891 217.368 82.799 217.368H80.063ZM84.653 222.426C84.653 221.994 84.491 221.658 84.167 221.418C83.855 221.166 83.393 221.04 82.781 221.04H80.063V223.758H82.817C84.041 223.758 84.653 223.314 84.653 222.426ZM95.2021 217.206C96.0181 218.07 96.4261 219.192 96.4261 220.572C96.4261 221.952 96.0181 223.08 95.2021 223.956C94.3861 224.82 93.3361 225.252 92.0521 225.252C90.7681 225.252 89.7121 224.82 88.8841 223.956C88.0681 223.08 87.6601 221.952 87.6601 220.572C87.6601 219.192 88.0681 218.07 88.8841 217.206C89.7121 216.33 90.7681 215.892 92.0521 215.892C93.3361 215.892 94.3861 216.33 95.2021 217.206ZM90.0001 218.124C89.4961 218.748 89.2441 219.564 89.2441 220.572C89.2441 221.58 89.4961 222.396 90.0001 223.02C90.5161 223.644 91.2001 223.956 92.0521 223.956C92.9041 223.956 93.5821 223.65 94.0861 223.038C94.5901 222.414 94.8421 221.592 94.8421 220.572C94.8421 219.552 94.5901 218.736 94.0861 218.124C93.5821 217.5 92.9041 217.188 92.0521 217.188C91.2001 217.188 90.5161 217.5 90.0001 218.124ZM108.452 217.404H103.952V225H102.404V216.144H108.452V217.404ZM116.63 217.206C117.446 218.07 117.854 219.192 117.854 220.572C117.854 221.952 117.446 223.08 116.63 223.956C115.814 224.82 114.764 225.252 113.48 225.252C112.196 225.252 111.14 224.82 110.312 223.956C109.496 223.08 109.088 221.952 109.088 220.572C109.088 219.192 109.496 218.07 110.312 217.206C111.14 216.33 112.196 215.892 113.48 215.892C114.764 215.892 115.814 216.33 116.63 217.206ZM111.428 218.124C110.924 218.748 110.672 219.564 110.672 220.572C110.672 221.58 110.924 222.396 111.428 223.02C111.944 223.644 112.628 223.956 113.48 223.956C114.332 223.956 115.01 223.65 115.514 223.038C116.018 222.414 116.27 221.592 116.27 220.572C116.27 219.552 116.018 218.736 115.514 218.124C115.01 217.5 114.332 217.188 113.48 217.188C112.628 217.188 111.944 217.5 111.428 218.124ZM123.462 217.188C122.622 217.188 121.962 217.518 121.482 218.178C121.002 218.826 120.762 219.624 120.762 220.572C120.762 221.508 120.996 222.306 121.464 222.966C121.944 223.614 122.616 223.938 123.48 223.938C123.96 223.938 124.392 223.836 124.776 223.632C125.172 223.416 125.622 223.026 126.126 222.462L127.152 223.326C126.588 224.034 126.024 224.532 125.46 224.82C124.896 225.108 124.236 225.252 123.48 225.252C122.184 225.252 121.14 224.826 120.348 223.974C119.568 223.122 119.178 221.988 119.178 220.572C119.178 219.168 119.574 218.04 120.366 217.188C121.17 216.324 122.208 215.892 123.48 215.892C124.212 215.892 124.848 216.018 125.388 216.27C125.94 216.522 126.486 216.954 127.026 217.566L126.018 218.52C125.562 218.028 125.136 217.686 124.74 217.494C124.356 217.29 123.93 217.188 123.462 217.188ZM135.324 217.404H132.372V225H130.824V217.404H127.854V216.144H135.324V217.404ZM143.291 222.48L144.209 223.416C143.573 224.088 142.961 224.562 142.373 224.838C141.785 225.114 141.113 225.252 140.357 225.252C139.025 225.252 137.957 224.832 137.153 223.992C136.361 223.14 135.965 222.018 135.965 220.626C135.965 219.234 136.349 218.1 137.117 217.224C137.897 216.336 138.923 215.892 140.195 215.892C141.455 215.892 142.433 216.27 143.129 217.026C143.837 217.782 144.191 218.826 144.191 220.158C144.191 220.326 144.179 220.554 144.155 220.842H137.513C137.561 221.778 137.831 222.534 138.323 223.11C138.815 223.674 139.499 223.956 140.375 223.956C140.927 223.956 141.401 223.848 141.797 223.632C142.193 223.428 142.691 223.044 143.291 222.48ZM137.549 219.69H142.661C142.625 218.898 142.385 218.274 141.941 217.818C141.509 217.362 140.921 217.134 140.177 217.134C139.457 217.134 138.869 217.356 138.413 217.8C137.957 218.244 137.669 218.874 137.549 219.69ZM153.896 216.144V225H152.438V221.364C152.438 219.9 152.456 218.676 152.492 217.692C151.748 218.928 151.064 220.02 150.44 220.968L147.812 225H146.156V216.144H147.614V220.068C147.614 221.232 147.596 222.336 147.56 223.38C148.496 221.868 149.174 220.8 149.594 220.176L152.222 216.144H153.896ZM152.852 212.598H151.556C151.556 213.018 151.424 213.348 151.16 213.588C150.896 213.816 150.518 213.93 150.026 213.93C149.534 213.93 149.156 213.816 148.892 213.588C148.628 213.348 148.496 213.018 148.496 212.598H147.182C147.182 213.342 147.428 213.918 147.92 214.326C148.424 214.722 149.126 214.92 150.026 214.92C150.914 214.92 151.604 214.722 152.096 214.326C152.6 213.918 152.852 213.342 152.852 212.598ZM158.367 216.144V218.088H156.531V216.144H158.367ZM158.367 223.056V225H156.531V223.056H158.367Z" fill="#222733"/>
<path d="M250.358 223.65H257.486V225H248.738V224.406C248.738 223.578 248.894 222.864 249.206 222.264C249.53 221.664 249.926 221.178 250.394 220.806C250.97 220.362 251.642 219.906 252.41 219.438L253.31 218.916C253.934 218.556 254.396 218.274 254.696 218.07C255.464 217.506 255.848 216.81 255.848 215.982C255.848 215.31 255.626 214.788 255.182 214.416C254.738 214.032 254.168 213.84 253.472 213.84C252.776 213.84 252.17 214.008 251.654 214.344C251.126 214.692 250.55 215.256 249.926 216.036L248.756 215.208C250.016 213.384 251.576 212.472 253.436 212.472C254.636 212.472 255.602 212.802 256.334 213.462C257.078 214.11 257.45 214.932 257.45 215.928C257.45 216.624 257.306 217.218 257.018 217.71C256.742 218.19 256.382 218.592 255.938 218.916C255.554 219.216 254.972 219.594 254.192 220.05L253.346 220.554L253.004 220.752C252.428 221.1 251.966 221.4 251.618 221.652C250.886 222.192 250.466 222.858 250.358 223.65ZM267.477 214.74C268.053 215.856 268.341 217.236 268.341 218.88C268.341 220.524 268.053 221.904 267.477 223.02C266.697 224.532 265.455 225.288 263.751 225.288C262.047 225.288 260.805 224.532 260.025 223.02C259.449 221.904 259.161 220.524 259.161 218.88C259.161 217.236 259.449 215.856 260.025 214.74C260.805 213.228 262.047 212.472 263.751 212.472C265.455 212.472 266.697 213.228 267.477 214.74ZM261.429 215.424C260.997 216.312 260.781 217.464 260.781 218.88C260.781 220.296 260.997 221.448 261.429 222.336C261.933 223.392 262.707 223.92 263.751 223.92C264.795 223.92 265.569 223.392 266.073 222.336C266.505 221.448 266.721 220.296 266.721 218.88C266.721 217.464 266.505 216.312 266.073 215.424C265.569 214.368 264.795 213.84 263.751 213.84C262.707 213.84 261.933 214.368 261.429 215.424ZM278.341 214.74C278.917 215.856 279.205 217.236 279.205 218.88C279.205 220.524 278.917 221.904 278.341 223.02C277.561 224.532 276.319 225.288 274.615 225.288C272.911 225.288 271.669 224.532 270.889 223.02C270.313 221.904 270.025 220.524 270.025 218.88C270.025 217.236 270.313 215.856 270.889 214.74C271.669 213.228 272.911 212.472 274.615 212.472C276.319 212.472 277.561 213.228 278.341 214.74ZM272.293 215.424C271.861 216.312 271.645 217.464 271.645 218.88C271.645 220.296 271.861 221.448 272.293 222.336C272.797 223.392 273.571 223.92 274.615 223.92C275.659 223.92 276.433 223.392 276.937 222.336C277.369 221.448 277.585 220.296 277.585 218.88C277.585 217.464 277.369 216.312 276.937 215.424C276.433 214.368 275.659 213.84 274.615 213.84C273.571 213.84 272.797 214.368 272.293 215.424Z" fill="#222733"/>
<path opacity="0.4" d="M3.042 262.22H11.538V273.614H13.068V277.664H11.43V275H2.034V277.664H0.396V273.614H1.476C1.908 273.002 2.268 272.198 2.556 271.202C2.832 270.23 2.982 268.832 3.006 267.008L3.042 262.22ZM3.222 273.614H9.864V263.606H4.59L4.554 267.062C4.494 270.242 4.05 272.426 3.222 273.614ZM22.1517 268.844V275H20.7477V273.902C20.1237 274.826 19.1217 275.288 17.7417 275.288C16.7697 275.288 15.9957 275.078 15.4197 274.658C14.8557 274.238 14.5737 273.62 14.5737 272.804C14.5737 271.856 14.9277 271.166 15.6357 270.734C16.3677 270.29 17.3877 269.954 18.6957 269.726L20.6757 269.366V268.916C20.6757 268.376 20.4837 267.95 20.0997 267.638C19.7277 267.326 19.2297 267.17 18.6057 267.17C18.0657 267.17 17.5797 267.284 17.1477 267.512C16.7277 267.728 16.2417 268.112 15.6897 268.664L14.6997 267.782C15.7677 266.522 17.0517 265.892 18.5517 265.892C19.6797 265.892 20.5617 266.162 21.1977 266.702C21.8337 267.23 22.1517 267.944 22.1517 268.844ZM20.6757 271.688V270.518L19.0557 270.842C17.9517 271.07 17.1897 271.304 16.7697 271.544C16.3617 271.784 16.1337 272.186 16.0857 272.75C16.0857 273.158 16.2417 273.47 16.5537 273.686C16.8777 273.902 17.3277 274.01 17.9037 274.01C18.7077 274.01 19.3677 273.8 19.8837 273.38C20.4117 272.948 20.6757 272.384 20.6757 271.688ZM30.8573 267.404H27.9053V275H26.3573V267.404H23.3873V266.144H30.8573V267.404ZM39.3255 268.844V275H37.9215V273.902C37.2975 274.826 36.2955 275.288 34.9155 275.288C33.9435 275.288 33.1695 275.078 32.5935 274.658C32.0295 274.238 31.7475 273.62 31.7475 272.804C31.7475 271.856 32.1015 271.166 32.8095 270.734C33.5415 270.29 34.5615 269.954 35.8695 269.726L37.8495 269.366V268.916C37.8495 268.376 37.6575 267.95 37.2735 267.638C36.9015 267.326 36.4035 267.17 35.7795 267.17C35.2395 267.17 34.7535 267.284 34.3215 267.512C33.9015 267.728 33.4155 268.112 32.8635 268.664L31.8735 267.782C32.9415 266.522 34.2255 265.892 35.7255 265.892C36.8535 265.892 37.7355 266.162 38.3715 266.702C39.0075 267.23 39.3255 267.944 39.3255 268.844ZM37.8495 271.688V270.518L36.2295 270.842C35.1255 271.07 34.3635 271.304 33.9435 271.544C33.5355 271.784 33.3075 272.186 33.2595 272.75C33.2595 273.158 33.4155 273.47 33.7275 273.686C34.0515 273.902 34.5015 274.01 35.0775 274.01C35.8815 274.01 36.5415 273.8 37.0575 273.38C37.5855 272.948 37.8495 272.384 37.8495 271.688ZM43.7396 266.144V268.088H41.9036V266.144H43.7396ZM43.7396 273.056V275H41.9036V273.056H43.7396Z" fill="#222733"/>
<path d="M210.358 273.65H217.486V275H208.738V274.406C208.738 273.578 208.894 272.864 209.206 272.264C209.53 271.664 209.926 271.178 210.394 270.806C210.97 270.362 211.642 269.906 212.41 269.438L213.31 268.916C213.934 268.556 214.396 268.274 214.696 268.07C215.464 267.506 215.848 266.81 215.848 265.982C215.848 265.31 215.626 264.788 215.182 264.416C214.738 264.032 214.168 263.84 213.472 263.84C212.776 263.84 212.17 264.008 211.654 264.344C211.126 264.692 210.55 265.256 209.926 266.036L208.756 265.208C210.016 263.384 211.576 262.472 213.436 262.472C214.636 262.472 215.602 262.802 216.334 263.462C217.078 264.11 217.45 264.932 217.45 265.928C217.45 266.624 217.306 267.218 217.018 267.71C216.742 268.19 216.382 268.592 215.938 268.916C215.554 269.216 214.972 269.594 214.192 270.05L213.346 270.554L213.004 270.752C212.428 271.1 211.966 271.4 211.618 271.652C210.886 272.192 210.466 272.858 210.358 273.65ZM227.477 264.74C228.053 265.856 228.341 267.236 228.341 268.88C228.341 270.524 228.053 271.904 227.477 273.02C226.697 274.532 225.455 275.288 223.751 275.288C222.047 275.288 220.805 274.532 220.025 273.02C219.449 271.904 219.161 270.524 219.161 268.88C219.161 267.236 219.449 265.856 220.025 264.74C220.805 263.228 222.047 262.472 223.751 262.472C225.455 262.472 226.697 263.228 227.477 264.74ZM221.429 265.424C220.997 266.312 220.781 267.464 220.781 268.88C220.781 270.296 220.997 271.448 221.429 272.336C221.933 273.392 222.707 273.92 223.751 273.92C224.795 273.92 225.569 273.392 226.073 272.336C226.505 271.448 226.721 270.296 226.721 268.88C226.721 267.464 226.505 266.312 226.073 265.424C225.569 264.368 224.795 263.84 223.751 263.84C222.707 263.84 221.933 264.368 221.429 265.424ZM231.745 273.056V275H229.909V273.056H231.745ZM241.628 264.74C242.204 265.856 242.492 267.236 242.492 268.88C242.492 270.524 242.204 271.904 241.628 273.02C240.848 274.532 239.606 275.288 237.902 275.288C236.198 275.288 234.956 274.532 234.176 273.02C233.6 271.904 233.312 270.524 233.312 268.88C233.312 267.236 233.6 265.856 234.176 264.74C234.956 263.228 236.198 262.472 237.902 262.472C239.606 262.472 240.848 263.228 241.628 264.74ZM235.58 265.424C235.148 266.312 234.932 267.464 234.932 268.88C234.932 270.296 235.148 271.448 235.58 272.336C236.084 273.392 236.858 273.92 237.902 273.92C238.946 273.92 239.72 273.392 240.224 272.336C240.656 271.448 240.872 270.296 240.872 268.88C240.872 267.464 240.656 266.312 240.224 265.424C239.72 264.368 238.946 263.84 237.902 263.84C236.858 263.84 236.084 264.368 235.58 265.424ZM251.893 270.824H253.729V272.138H251.893V275H250.345V272.138H244.135V270.698L249.211 262.76H250.975L245.827 270.824H250.345V268.034H251.893V270.824ZM257.04 273.056V275H255.204V273.056H257.04ZM260.737 273.65H267.865V275H259.117V274.406C259.117 273.578 259.273 272.864 259.585 272.264C259.909 271.664 260.305 271.178 260.773 270.806C261.349 270.362 262.021 269.906 262.789 269.438L263.689 268.916C264.313 268.556 264.775 268.274 265.075 268.07C265.843 267.506 266.227 266.81 266.227 265.982C266.227 265.31 266.005 264.788 265.561 264.416C265.117 264.032 264.547 263.84 263.851 263.84C263.155 263.84 262.549 264.008 262.033 264.344C261.505 264.692 260.929 265.256 260.305 266.036L259.135 265.208C260.395 263.384 261.955 262.472 263.815 262.472C265.015 262.472 265.981 262.802 266.713 263.462C267.457 264.11 267.829 264.932 267.829 265.928C267.829 266.624 267.685 267.218 267.397 267.71C267.121 268.19 266.761 268.592 266.317 268.916C265.933 269.216 265.351 269.594 264.571 270.05L263.725 270.554L263.383 270.752C262.807 271.1 262.345 271.4 261.997 271.652C261.265 272.192 260.845 272.858 260.737 273.65ZM278.128 271.292C278.128 272.348 277.738 273.278 276.958 274.082C276.178 274.886 275.128 275.288 273.808 275.288C272.284 275.288 270.772 274.784 269.272 273.776L270.082 272.606C270.85 273.086 271.504 273.428 272.044 273.632C272.584 273.824 273.154 273.92 273.754 273.92C274.582 273.92 275.248 273.68 275.752 273.2C276.268 272.708 276.526 272.078 276.526 271.31C276.526 270.554 276.268 269.966 275.752 269.546C275.236 269.114 274.516 268.898 273.592 268.898C272.98 268.898 272.494 268.976 272.134 269.132L271.396 268.124L275.788 264.11H269.884V262.76H277.768V264.074L273.808 267.674H274.042C275.23 267.674 276.208 267.998 276.976 268.646C277.744 269.294 278.128 270.176 278.128 271.292Z" fill="#222733"/>
</svg>
